# xmcd CD database file
# Copyright (C) 1997 Ti Kan
# 
# Track frame offsets:
#     183
#     18423
#     28588
#     41213
#     69908
#     90503
#     103243
#     127060
#     162945
#     179170
#     212765
# 
# Disc length: 3008 seconds
# 
# Revision: 1
# Processed by: cddbd v1.4b41PL1 Copyright (c) Steve Scherf et al.
# Submitted via: DiscPlay 4.0.3
# 
DISCID=9b0bbe0b
DTITLE=Blue Dirt - Yes sir, I can boogie
DYEAR=1900
DGENRE=
TTITLE0=Gotta move
TTITLE1=Drinking and Sinking
TTITLE2=Bad woman boogie
TTITLE3=Toothless Blues
TTITLE4=Drinking all night and day
TTITLE5=Bad luck and misery
TTITLE6=Traintalk
TTITLE7=No beer no whiskey
TTITLE8=My baby strats drinkin'
TTITLE9=Big fat fuckin' woman
TTITLE10=Yes sir, I can boogie
EXTD=
EXTT0=
EXTT1=
EXTT2=
EXTT3=
EXTT4=
EXTT5=
EXTT6=
EXTT7=
EXTT8=
EXTT9=
EXTT10=
PLAYORDER=
